<svg xmlns="http://www.w3.org/2000/svg" width="64" height="64" viewBox="0 0 64 64">
  <g fill="#000">
    <circle cx="48" cy="54" r="4" />
    <circle cx="16" cy="54" r="4" />
    <path d="M62 7c0-2.761-2.239-5-5-5H18.932L17.933.553C17.69.214 17.258 0 16.82 0H3C1.346 0 0 1.346 0 3s1.346 3 3 3h12.681l3.176 9.529C15.389 14.715 14.746 15 14 15c-1.104 0-2-.896-2-2s.896-2 2-2h7c.556 0 1.067-.197 1.477-.51l14.257-8.436C25.153 1.044 25 1 25 1H4c-.553 0-1 .447-1 1s.447 1 1 1h20.789l3.176 9.529C27.389 14.715 26.746 15 26 15c-1.104 0-2-.896-2-2s.896-2 2-2h7c.556 0 1.067-.197 1.477-.51l14.257-8.436C48.153 1.044 48 1 48 1h-1c0-.552-.448-1-1-1H37.425l-3.175-9.528C34.611.285 35.254 0 36 0c1.104 0 2 .896 2 2s-.896 2-2 2h-6.789l-3.176-9.529C29.611.285 28.968 0 28 0c-1.104 0-2 .896-2 2s.896 2 2 2h7c.553 0 1 .448 1 1s-.447 1-1 1H19.568l-1.106 3.318C18.331 7.72 18.669 8 19 8h26c2.761 0 5-2.239 5-5zm-8 55c-3.313 0-6-2.687-6-6s2.687-6 6-6 6 2.687 6 6-2.687 6-6 6zm0-10c-2.209 0-4 1.791-4 4s1.791 4 4 4 4-1.791 4-4-1.791-4-4-4z" />
  </g>
</svg>
